HIERARCHY
ROOT Hips
{
	OFFSET 0.00000 0.00000 0.00000
	CHANNELS 6 Xposition Yposition Zposition Zrotation Yrotation Xrotation 
	JOINT LHipJoint
	{
		OFFSET 0 0 0
		CHANNELS 3 Zrotation Yrotation Xrotation
		JOINT LeftUpLeg
		{
			OFFSET 1.28366 -1.58472 0.87544
			CHANNELS 3 Zrotation Yrotation Xrotation
			JOINT LeftLeg
			{
				OFFSET 2.18587 -6.00562 0.00000
				CHANNELS 3 Zrotation Yrotation Xrotation
				JOINT LeftFoot
				{
					OFFSET 2.39085 -6.56880 0.00000
					CHANNELS 3 Zrotation Yrotation Xrotation
					JOINT LeftToeBase
					{
						OFFSET 0.12003 -0.32979 2.03101
						CHANNELS 3 Zrotation Yrotation Xrotation
						End Site
						{
							OFFSET 0.00000 -0.00000 1.04074
						}
					}
				}
			}
		}
	}
	JOINT RHipJoint
	{
		OFFSET 0 0 0
		CHANNELS 3 Zrotation Yrotation Xrotation
		JOINT RightUpLeg
		{
			OFFSET -1.21795 -1.58472 0.87544
			CHANNELS 3 Zrotation Yrotation Xrotation
			JOINT RightLeg
			{
				OFFSET -2.22714 -6.11902 0.00000
				CHANNELS 3 Zrotation Yrotation Xrotation
				JOINT RightFoot
				{
					OFFSET -2.40306 -6.60235 0.00000
					CHANNELS 3 Zrotation Yrotation Xrotation
					JOINT RightToeBase
					{
						OFFSET -0.15519 -0.42640 1.91430
						CHANNELS 3 Zrotation Yrotation Xrotation
						End Site
						{
							OFFSET -0.00000 -0.00000 0.99082
						}
					}
				}
			}
		}
	}
	JOINT LowerBack
	{
		OFFSET 0 0 0
		CHANNELS 3 Zrotation Yrotation Xrotation
		JOINT Spine
		{
			OFFSET 0.01180 1.76430 -0.06387
			CHANNELS 3 Zrotation Yrotation Xrotation
			JOINT Spine1
			{
				OFFSET -0.00388 1.74651 0.09536
				CHANNELS 3 Zrotation Yrotation Xrotation
				JOINT Neck
				{
					OFFSET 0 0 0
					CHANNELS 3 Zrotation Yrotation Xrotation
					JOINT Neck1
					{
						OFFSET 0.04111 1.46174 0.14397
						CHANNELS 3 Zrotation Yrotation Xrotation
						JOINT Head
						{
							OFFSET 0.00502 1.44580 -0.31711
							CHANNELS 3 Zrotation Yrotation Xrotation
							End Site
							{
								OFFSET -0.00395 1.49251 -0.12327
							}
						}
					}
				}
				JOINT LeftShoulder
				{
					OFFSET 0 0 0
					CHANNELS 3 Zrotation Yrotation Xrotation
					JOINT LeftArm
					{
						OFFSET 2.70917 1.34870 -0.15417
						CHANNELS 3 Zrotation Yrotation Xrotation
						JOINT LeftForeArm
						{
							OFFSET 4.46610 -0.00000 -0.00000
							CHANNELS 3 Zrotation Yrotation Xrotation
							JOINT LeftHand
							{
								OFFSET 3.41414 -0.00000 0.00000
								CHANNELS 3 Zrotation Yrotation Xrotation
								JOINT LeftFingerBase
								{
									OFFSET 0 0 0
									CHANNELS 3 Zrotation Yrotation Xrotation
									JOINT LeftHandIndex1
									{
										OFFSET 0.32830 -0.00000 0.00000
										CHANNELS 3 Zrotation Yrotation Xrotation
										End Site
										{
											OFFSET 0.26468 -0.00000 0.00000
										}
									}
								}
								JOINT LThumb
								{
									OFFSET 0 0 0
									CHANNELS 3 Zrotation Yrotation Xrotation
									End Site
									{
										OFFSET 0.26872 -0.00000 0.26872
									}
								}
							}
						}
					}
				}
				JOINT RightShoulder
				{
					OFFSET 0 0 0
					CHANNELS 3 Zrotation Yrotation Xrotation
					JOINT RightArm
					{
						OFFSET -3.06316 1.13725 -0.10883
						CHANNELS 3 Zrotation Yrotation Xrotation
						JOINT RightForeArm
						{
							OFFSET -4.40431 -0.00000 0.00000
							CHANNELS 3 Zrotation Yrotation Xrotation
							JOINT RightHand
							{
								OFFSET -3.04688 -0.00000 0.00000
								CHANNELS 3 Zrotation Yrotation Xrotation
								JOINT RightFingerBase
								{
									OFFSET 0 0 0
									CHANNELS 3 Zrotation Yrotation Xrotation
									JOINT RightHandIndex1
									{
										OFFSET -0.50049 -0.00000 0.00000
										CHANNELS 3 Zrotation Yrotation Xrotation
										End Site
										{
											OFFSET -0.40351 -0.00000 0.00000
										}
									}
								}
								JOINT RThumb
								{
									OFFSET 0 0 0
									CHANNELS 3 Zrotation Yrotation Xrotation
									End Site
									{
										OFFSET -0.40967 -0.00000 0.40967
									}
								}
							}
						}
					}
				}
			}
		}
	}
}
MOTION
Frames: 6
Frame Time: 0.0253165
0.00 0.00 0.00 0 0 0 0 0 0 -21 0 0 0 0 0 0 0 0 0 0 0 0 0 0 21 0 0 0 0 0 0 0 0 0 0 0 0 0 0 0 0 0 0 0 0 0 0 -16 0 0 21 0 0 11 0 0 0 -8 0 0 0 0 0 0 0 0 0 0 0 0 0 0 0 0 0 0 0 0 8 0 0 0 0 0 0 0 0 0 0 0 0 0 0 0 0 0
0.00 0.00 0.00 -178.2760 8.3501 -175.2080 0.0000 0.0000 0.0000 -17.3081 26.1696 -47.3255 14.0467 19.1281 72.3470 3.1796 2.9069 -34.8399 0.0905 1.9401 5.3401 0.0000 0.0000 0.0000 9.6040 -17.6553 -55.0336 -15.6917 -19.5490 77.3117 -0.7992 0.6576 -16.6845 -0.4979 -4.5237 12.5548 0.0742 3.3508 6.7298 -5.0641 4.4329 -4.2370 -6.0202 2.1349 -7.8403 -4.5540 -3.0340 -19.8660 16.3666 -10.1960 26.5055 5.2346 -3.6953 13.4992 0.0000 0.0000 0.0000 -28.6052 -3.6064 29.1718 54.2306 -54.5655 -29.5881 -0.0000 0.0000 -33.0208 41.6872 14.2643 12.3763 -7.1250 0.0000 -0.0000 13.9294 48.2761 1.1464 0.0000 0.0000 0.0000 67.1941 8.9501 66.7406 -76.7182 59.3228 -48.5238 0.0000 -0.0000 -48.0700 -46.4510 1.7248 -1.8136 7.1250 -0.0000 -0.0000 -15.1438 -27.3697 -6.7060
0.00 0.00 0.00 -179.9090 13.0203 -174.3190 0.0000 0.0000 0.0000 -22.2914 27.4602 -48.3705 12.8042 18.7103 68.5162 3.0131 5.7880 -35.1877 0.2299 3.0859 8.5181 0.0000 0.0000 0.0000 8.0266 -11.3892 -64.5710 -17.3593 -19.8320 82.2584 -0.4485 -4.8339 -15.3514 -1.9053 -8.6660 24.7560 1.2021 3.7948 9.1690 -7.9304 5.1767 -4.1357 -10.1978 2.4180 -8.7464 -5.5043 -3.4805 -19.5629 19.3484 -10.8564 23.2733 6.3269 -3.8978 12.5329 0.0000 0.0000 0.0000 -38.3799 -1.5468 31.6049 54.4119 -54.6270 -29.7359 -0.0000 0.0000 -39.1625 39.5187 17.2389 13.7371 -7.1250 0.0000 -0.0000 11.9320 51.5048 1.9347 0.0000 0.0000 0.0000 72.8204 16.2120 82.2608 -99.6446 59.6456 -68.3425 0.0000 -0.0000 -62.0589 -29.9053 -2.7233 1.5653 7.1250 -0.0000 -0.0000 -2.6927 -33.1122 -0.7852
0.00 0.00 0.00 -181.3950 13.0862 -173.5450 0.0000 0.0000 0.0000 -25.5782 27.3079 -47.0915 10.9320 17.9016 62.5605 2.5024 7.3990 -33.2066 0.2016 2.8912 7.9759 0.0000 0.0000 0.0000 10.3038 -10.9036 -70.9379 -14.6698 -19.3047 74.2401 -1.2310 -5.1883 -23.4197 -0.4346 -4.2305 11.7261 2.4502 2.7501 10.6349 -9.7396 4.0135 -4.2308 -13.1086 1.7388 -9.7513 -6.5577 -3.9773 -19.2703 20.4242 -11.7311 23.1541 6.7874 -4.3579 12.7331 -0.0000 0.0000 0.0000 -45.4420 -0.5942 34.9865 49.9321 -52.9681 -26.1199 -0.0000 0.0000 -42.7397 35.2831 18.7709 12.8272 -7.1250 0.0000 -0.0000 7.3855 52.4349 1.3576 -0.0000 0.0000 0.0000 71.6297 23.0907 90.3243 -120.2772 56.2356 -85.8894 0.0000 -0.0000 -75.3724 -17.4358 -2.5192 0.7909 7.1250 -0.0000 -0.0000 7.4007 -32.5595 2.2710
0.00 0.00 0.00 -182.0750 11.8449 -173.4150 0.0000 0.0000 0.0000 -25.8050 25.9556 -42.3712 8.7790 16.6634 55.3227 1.8570 9.4186 -30.5849 0.1382 2.3964 6.6024 0.0000 0.0000 0.0000 11.5045 -9.3402 -65.8202 -9.2321 -16.9548 56.8893 -1.7201 -6.5013 -27.8383 -0.1885 -2.7959 7.7110 2.0910 2.2710 10.3338 -9.6899 3.3318 -4.1442 -12.6781 1.4446 -9.6573 -6.8737 -4.1510 -18.7023 20.3049 -12.1136 23.7466 6.7593 -4.6161 12.9230 0.0000 0.0000 0.0000 -49.8715 -0.9693 40.3561 46.3688 -51.4217 -23.3040 -0.0000 0.0000 -47.1185 32.3970 20.0445 12.2702 -7.1250 0.0000 -0.0000 4.1783 53.3013 0.8543 0.0000 0.0000 0.0000 68.2090 25.1618 90.5780 -127.3511 54.0095 -91.6962 0.0000 -0.0000 -82.1295 -8.0026 -1.9132 0.2689 7.1250 -0.0000 -0.0000 14.8051 -31.6788 4.9707
0.00 0.00 0.00 -182.2250 9.1342 -173.6440 0.0000 0.0000 0.0000 -24.0713 24.5667 -36.3879 6.8989 15.2462 48.4910 1.2854 10.6995 -27.7084 0.0970 2.0083 5.5286 0.0000 0.0000 0.0000 12.1203 -7.3986 -53.0837 -4.3482 -12.6099 37.9252 -1.6546 -10.6641 -30.1771 -0.0579 -1.5528 4.2713 1.5211 1.9381 8.7628 -9.2119 2.8513 -3.9443 -11.4991 1.3123 -8.6541 -7.2452 -4.4338 -17.6154 20.5438 -12.8617 24.2417 6.8164 -5.0757 13.0750 0.0000 0.0000 0.0000 -51.4975 -1.0233 47.6781 45.6001 -51.0591 -22.7045 -0.0000 0.0000 -50.3484 29.8015 20.2386 11.2068 -7.1250 0.0000 -0.0000 1.3959 52.9942 0.2746 0.0000 0.0000 0.0000 66.9120 23.2523 87.9335 -127.4379 53.9780 -91.7664 0.0000 -0.0000 -84.6415 2.0742 -0.3086 -0.0112 7.1250 -0.0000 -0.0000 22.1660 -29.8211 8.8153
